<svg width="58" height="29" viewBox="0 0 58 29" fill="none" xmlns="http://www.w3.org/2000/svg">
<path d="M1.62921 22.7977C1.62921 25.2973 3.59866 27.3237 6.02809 27.3237H15.6404V29H6.02809L5.87249 28.998C2.66689 28.9145 0.0831308 26.256 0.00190923 22.9578L0 22.7977V20.7861H1.62921V22.7977ZM58 22.7977L57.9981 22.9578C57.9156 26.3092 55.2491 29 51.9719 29H42.1966V27.3237H51.9719C54.4013 27.3237 56.3708 25.2973 56.3708 22.7977V20.7861H58V22.7977ZM15.6404 1.6763H6.02809C3.59866 1.6763 1.62921 3.70267 1.62921 6.20231V8.3815H0V6.20231C2.63491e-07 2.8304 2.61518 0.0868813 5.87249 0.00196441L6.02809 0H15.6404V1.6763ZM51.9719 0C55.3011 0 58 2.77687 58 6.20231V8.3815H56.3708V6.20231C56.3708 3.70266 54.4013 1.6763 51.9719 1.6763H42.1966V0H51.9719Z" fill="white"/>
</svg>
